<svg xmlns="http://www.w3.org/2000/svg" width="64" height="64" viewBox="0 0 64 64"><path d="M37.456,5.942l.621-1.079L31.453,0a22.726,22.726,0,0,0-2.642.319C28.678.407,34.519,4.1,37.456,5.942ZM40.323,4.52l-1.159.767C36.854,3.607,32.33.22,32.718.116a15.941,15.941,0,0,1,3,.3Zm.838.2h1.6L39.9.987A18.626,18.626,0,0,0,36.678.354C36.387.433,39.5,3.278,41.161,4.72Zm1.951-.356,1.6.156-.976-2.079L40.54,1.364Zm1.071-1.923L45.241,4.72l3.195.143C44.441,2.55,44.183,2.441,44.183,2.441Zm-8.145,3.3-.577,1c-4.172-2-10.791-5.632-10.791-5.632A10.221,10.221,0,0,1,27.336.39ZM33.8,7.5l.621-.765L23.508,1.144l-2.473.939Zm-.71.465-.37.87L17.441,3.7l2.128-1.028Zm-2.04,2.116.4-.931-15.4-4.789L14.194,5.737Zm-.8.5-.355.836L11.178,7.968l1.774-1.532Zm-1.439,2.526.04-.889L9.758,9.153,8.516,10.582Zm-.98.712v.8L6.033,13.6,7.1,11.989ZM26.7,16.4l.178-.8L4.791,15.066l-.8,1.512Zm-.887.945-.169.827L2.307,20.143l.532-1.7Zm-.955,2.8.246-.782L1.331,22l-.293,1.577ZM12.155,42.38l1.863-1.068-.8,1.424ZM21.2,26.453,1.085,33,0,30.636A31.7,31.7,0,0,0,.268,36.33L1.5,33.953l.09.157,19.688-6.9ZM1.51,34.64l.976,1.334L.978,40.156l-.71-3.381Zm1.242,1.868.518.615-.41-.741,16.816-6.856.283.575L3.4,37.274l.33.391c-.414,2.165-1.295,6.441-1.508,6.228a18.765,18.765,0,0,1-1.065-3.114ZM5.5,39.783l-.279-.392c-.3,2.883-.949,8.341-1.229,8.06a15.97,15.97,0,0,1-1.242-2.758l1.242-6.05,1.083.544-.2-.278L18.1,32.77l.272.773Zm-.089.64H6.655c-.118,3.47-.39,10.391-.532,10.32a22.62,22.62,0,0,1-1.6-2.135ZM8.34,41.757H7.187L6.921,51.989a10.209,10.209,0,0,0,1.952,1.957S8.7,46.384,8.34,41.757Zm.71.712,1.065-.089,1.419,14.235-1.774-1.6Zm2.839.623h-.976l1.863,14.5,1.951,1.335Zm.887.534H13.84L18.276,60.8l-1.952-.89Zm2.839.267-.8.178L19.873,61.6l2.04.712Zm1.241.445.71-.267,8.161,19.306-1.863-.267Zm2.75-.267-.887.267,9.048,19.484h1.775Zm1.242.267h1.065L33.356,64H31.671Zm3.016-.267-.8.267L35.574,63.822l1.6-.267Zm1.6,0,.8-.178L40.9,62.576l-1.508.534Zm2.661.179.71-.356L44.445,61.243l-1.331.623ZM46.13,42.378l-.71.267,6.032,4V45.492Zm-5.145.89.532-.623L51.9,49.585l-.444.979ZM37.614,43l-.355.534,13.4,10.587.532-.889Zm-3.9.712.621-.445L49.5,56.436,48.88,57.5ZM30.7,43.98l.621-.445,16.217,15.91,1.386-1.952,2.695-.117a31.5,31.5,0,0,1-4.79,3.068l.666-.939-1.005.756ZM23.508,22.362l.047-.794L.444,25.743.316,27.21Zm-.888,2.312-.073-.762L0,29.526l.159,1.325ZM16.535,36.557l-.124.75-7.185,4.43-1-.578ZM45.6,31.669l.551.6,9.207-22.012L54.2,9.639Zm1.782,2.437-.629-.561L56.775,12.219l1.065,1.068Zm.524.979.533.822L60.108,16.4l-1.115-1.335Zm1.63,2.389-.565-.432L60.589,18.8l.8,1.6Zm.156,1,.512.878L62.558,24.141l-.72-1.957Zm1.37,2.391-.552-.6L63.293,25.612l.4,2.129Zm.1,1.071.53.925L64,31.669l-.2-2.141Zm1,2.811-.486-.848L63.949,33.545l-.181,2.362ZM51.94,45.8l.607.882,10.492-6.866.5-2.341Zm.92,2.856-.575-1c3.823-2.613,10.273-6.534,10.273-6.534a10.257,10.257,0,0,1-.72,2.672Zm-.889,1.128.619,1.08,7.518-3.306A22.765,22.765,0,0,0,61.159,45.1C61.15,44.946,55.03,48.157,51.971,49.783Zm-.213,3.2-.08-1.391c2.609-1.161,7.8-3.385,7.695-3a15.838,15.838,0,0,1-1.766,2.454Zm-.713.719-.514,1.424,4.487-.738a18.7,18.7,0,0,0,2.162-2.477C57.259,51.62,53.123,52.984,51.045,53.7ZM50.2,55.625l-.668,1.513L52,57.154l2.569-2.3ZM44.977,30.013l-.661-.44L51.364,7.148l1.2.847Zm-3.9-4.711.694.319L46.041,4.839H44.888Zm1.685,2.4.694.318,6.186-22.4-1.222-.527Zm-2.808-5.55-.638-.043L41.179,4.839h1.314Zm-2.864-2.7.8.153L38.959,5.522l-1.067.1Zm-1.513-3.139h-1V7.59l1-.576ZM32.38,9.82v2.135L31.4,10.8Z" fill="#c5c9d3" fill-rule="evenodd"/></svg>