<svg xmlns="http://www.w3.org/2000/svg" width="1790" height="575" viewBox="0 0 1790 575">
  <defs>
    <clipPath id="clipPath">
      <rect id="Rectangle_37" data-name="Rectangle 37" width="1790" height="575" transform="translate(0 505)"
            fill="#fff" stroke="#707070" strokeWidth="1"/>
    </clipPath>
    <clipPath id="clipPath-2">
      <rect id="Rectangle_4" data-name="Rectangle 4" width="2067.691" height="2924.283" fill="#fff"/>
    </clipPath>
  </defs>
  <g id="Backed_onBoarding_lines_bg" transform="translate(0 -505)" clipPath="url(#clipPath)">
    <g id="Group_3" data-name="Group 3" transform="translate(-283.951 -334.953)" opacity="0.15">
      <path id="Path_8" data-name="Path 8"
            d="M167.659,822.009,6.1,828.934v2.927l163.017-6.989L580.635,306.318l643.617,419.7.854.558,266.832-199.006,288.782,273.257.725.69L2073.8,662.887v-3.234L1782,798.01l-289.84-274.26L1224.992,723.011,581.118,303.142,580,302.414Z"
            transform="translate(0 581.93)" fill="#fff"/>
      <path id="Path_9" data-name="Path 9"
            d="M163.265,820.26,6.105,831.615v2.93l158.645-11.46L572.823,313.552,838.906,465.916l380.835,251.167.8.529,268.4-175.2,38.2,35.714,187.575,155.35,65.387,60.19,293.692-120.732v-3.161L1780.709,790.251l-64.068-58.977L1529.072,575.933l-39.811-37.223-268.712,175.4-380.11-250.69L572.1,309.771Z"
            transform="translate(0.002 596.086)" fill="#fff"/>
      <path id="Path_10" data-name="Path 10"
            d="M158.878,818.51,6.1,834.281v2.939l153.68-15.861.6-.064L565.011,320.785l268.18,132.575,382.786,255.287,269.97-151.387,38.805,35.846,187.5,133.146,66.51,59.571L2073.8,683v-3.1L1779.428,782.495l-65.358-58.527L1526.586,590.843l-40.218-37.171L1216.106,705.223,834.648,450.834,564.21,317.127Z"
            transform="translate(0.001 610.243)" fill="#fff"/>
      <path id="Path_11" data-name="Path 11"
            d="M154.483,816.765,6.1,836.943v2.951l149.343-20.309.573-.079L557.2,328.018l270.274,112.8,383.941,258.872L1482.95,572.114l39.188,35.8,187.645,111.111,67.036,58.436.6.523L2073.8,693.109v-3.038l-295.654,84.661-66.653-58.067L1524,605.65l-40.522-37.016-271.809,127.7L828.855,438.252,556.315,324.483Z"
            transform="translate(0.001 624.397)" fill="#fff"/>
      <path id="Path_13" data-name="Path 13"
            d="M145.7,813.274,6.1,842.236v2.989l140.684-29.19.5-.105L541.579,342.5l274.666,73.359,385.461,265.5.57.395,274.675-79.938,40.25,35.937.214.19,187.631,66.791,69.174,57.149.509.424L2073.8,713.407v-2.962l-298.227,48.768-68.855-56.892-.2-.164-187.581-66.77-41.241-36.825-274.9,80-385.1-265.256L540.529,339.192Z"
            transform="translate(0.001 652.701)" fill="#fff"/>
      <path id="Path_14" data-name="Path 14"
            d="M141.3,811.529,6.1,844.86v3.012l136.362-33.618.459-.114,390.839-464.4,276.8,53.6L1197.2,672.436l.512.357,276.245-56.117,41.054,36.247,187.631,44.633,70.744,56.924L2073.8,723.6v-2.942l-299.514,30.793-70.323-56.585L1516.4,650.246l-41.6-36.726-276.444,56.158L811.987,400.767l-.251-.176L533.479,346.708l-.842-.161Z"
            transform="translate(0.001 666.856)" fill="#fff"/>
      <path id="Path_15" data-name="Path 15"
            d="M136.905,809.79,6.1,847.478v3.044l132.458-38.165L525.952,356.991,804.9,390.837l387.786,272.675.453.321,277.813-32.3,41.653,36.367,187.631,22.473,71.8,56.275L2073.8,733.82v-2.927l-300.8,12.794-71.6-56.114-187.546-22.464L1471.9,628.484,1193.914,660.8,806.282,388.231l-.3-.211L525.525,353.99l-.784-.09Z"
            transform="translate(0.001 681.004)" fill="#fff"/>
      <path id="Path_16" data-name="Path 16"
            d="M132.51,808.054,6.1,850.078v3.085L133.817,810.7l.386-.129L518.138,364.244l281.091,14.083L1188.58,654.871l279.38-8.469,42.247,36.489,187.634.313L1770.7,738.83l303.1,5.238v-2.924l-302.087-5.22-72.484-55.342-.395-.3L1511.3,679.97l-42.288-36.524-279.538,8.475L800.577,375.7l-.348-.249L516.851,361.252Z"
            transform="translate(0.001 695.152)" fill="#fff"/>
      <path id="Path_17" data-name="Path 17"
            d="M508.962,372.371,128.112,810.086,6.105,856.434v3.129l123.732-47L510.319,375.269l283.24-5.676L1183.67,649.435l.345.246,280.954,15.361,42.846,36.606,187.628-21.85,73.572,54.728.339.252L2073.8,758.116v-2.93l-303.371-23.26-74.163-55.167L1508.745,698.6l-42.253-36.1-.377-.316-281.088-15.367L794.869,366.932l-.395-.286Z"
            transform="translate(0.002 705.529)" fill="#fff"/>
      <path id="Path_18" data-name="Path 18"
            d="M501.662,392.778l-.585.05L123.716,821.457,6.1,872.109v3.185l119.074-51.28.3-.129L502.5,395.638l285.39-25.444,391.275,283.427.292.213,282.515,39.188,43.452,36.726,187.634-44.013,74.958,54.333,305.777,41.466v-2.953l-304.66-41.311-75.441-54.687-187.5,43.978-42.978-36.319-282.629-39.2L789.16,367.506l-.442-.322Z"
            transform="translate(0 706.567)" fill="#fff"/>
      <path id="Path_19" data-name="Path 19"
            d="M493.708,413.2l-.515.079L119.315,832.83,6.1,887.76v3.249l114.749-55.672.263-.129,373.563-419.2L782.218,370.8l392.439,287.013.243.178,284.083,63.016,43.414,36.3.637.535,187.634-66.179,75.748,53.514.254.181L2073.8,804.976V802l-305.947-59.383-76.73-54.21-187.488,66.13L1460.316,718.3l-284.182-63.036L783.455,368.08l-.488-.357Z"
            transform="translate(0.001 707.603)" fill="#fff"/>
      <path id="Path_20" data-name="Path 20"
            d="M485.763,433.634l-.453.1L114.92,844.2,6.1,903.383v3.334l110.433-60.062.219-.12,370.1-410.148,289.691-64.98,393.6,290.589.2.152L1456,748.992l44.639,36.948L1688.275,697.6l76.844,52.912.211.149L2073.8,828.442v-3.018l-307.234-77.473-78.011-53.719L1501.074,782.5l-43.662-36.135L1171.68,659.495,777.75,368.657l-.538-.395Z"
            transform="translate(0.001 708.641)" fill="#fff"/>
      <path id="Path_21" data-name="Path 21"
            d="M477.823,454.072l-.395.114L110.522,855.579,6.1,918.984v3.421l106.116-64.436.175-.105,366.638-401.1L770.88,372.011l394.758,294.174.161.12,287.217,110.678,45.233,37.051L1685.88,703.52l77.935,52.319.178.12,309.8,95.978v-3.062l-308.53-95.583-79.283-53.225L1498.521,810.479l-43.838-35.908-.178-.146-287.279-110.7L771.462,368.8Z"
            transform="translate(0 709.676)" fill="#fff"/>
      <path id="Path_22" data-name="Path 22"
            d="M469.887,474.51l-.339.123L106.121,866.955,6.1,934.55v3.532l101.794-68.8.14-.094L471.206,477.145l294-104.525,395.922,297.753.12.093,288.785,134.511,45.818,37.147L1683.48,709.441l79.175,51.818,311.141,114.2v-3.115L1763.976,758.628l-80.558-52.722-187.45,132.552-44.235-35.863-.141-.114L1162.761,667.943l-397.051-298.6Z"
            transform="translate(0.001 710.712)" fill="#fff"/>
      <path id="Path_23" data-name="Path 23"
            d="M461.957,494.956l-.287.12L101.823,878.254,6.105,950.083v3.652l97.659-73.312L463.375,497.533l296.16-124.305L1156.8,674.683,1446.955,832.9l46.49,37.317L1681.076,715.36l80.353,51.248L2073.8,899v-3.176l-311.009-131.8-81.93-52.28L1493.419,866.44l-44.85-35.969L1158.384,672.232,760.629,370.388l-.673-.512Z"
            transform="translate(0.002 711.747)" fill="#fff"/>
      <path id="Path_24" data-name="Path 24"
            d="M454.032,515.4l-.237.117L97.387,889.649,6.105,965.572v3.8L99.378,891.78,455.547,517.917,753.859,373.831l398.369,305,291.782,182.1,47.037,37.369L1678.67,721.266l81.38,50.631,313.743,150.668v-3.243L1761.456,769.338,1678.3,717.593,1490.881,894.427,1445.7,858.534l-291.808-182.1L754.207,370.416Z"
            transform="translate(0.002 712.785)" fill="#fff"/>
      <path id="Path_25" data-name="Path 25"
            d="M446.119,535.848l-.2.108L92.95,901.047,6.1,981.015v3.974l88.887-81.851L447.716,538.307,748.183,374.437l399.475,308.544,293.417,205.972,47.561,37.419,187.625-199.2,82.421,50.014L2073.8,946.157v-3.316L1760.131,774.648l-84.38-51.2L1488.339,922.418l-45.522-35.811L1149.392,680.624,749.215,371.539l-.757-.585Z"
            transform="translate(0.001 713.82)" fill="#fff"/>
      <path id="Path_26" data-name="Path 26"
            d="M438.208,556.3l-.155.094L6.1,996.4v4.17L439.884,558.7l302.622-183.66,742.61,578.54,1.108.863,187.616-221.371,399.954,236.7v-3.4l-399.527-236.44-1.061-.632-187.4,221.108-742.3-578.294-.8-.62Z"
            transform="translate(0 714.858)" fill="#fff"/>
      <path id="Path_27" data-name="Path 27"
            d="M430.98,564.977l-.149.091L6.105,988.951v4.132l426.542-425.7,306.26-185.14L1453.833,947.9l1.009.8,220.067-214.92L2073.8,967.036V963.65L1675.421,730.69l-.959-.564-219.824,214.68L739.928,379.326l-.8-.629Z"
            transform="translate(0.002 728.72)" fill="#fff"/>
      <path id="Path_28" data-name="Path 28"
            d="M423.759,573.659l-.143.088L6.1,981.52v4.088L425.412,576.077l309.9-186.619,687.244,552.757.93.746L1676,734.491l397.8,229.814v-3.381L1676.581,731.45l-.88-.506L1423.458,939.189,736.345,386.54l-.8-.64Z"
            transform="translate(0 742.58)" fill="#fff"/>
      <path id="Path_29" data-name="Path 29"
            d="M416.534,582.346l-.14.085L6.1,974.118v4.044l412.073-393.4,313.53-188.1,659.56,539.863.863.7L1677.1,735.216l396.7,226.36v-3.369L1676.927,731.753,1392.256,933.567,732.763,393.756l-.8-.655Z"
            transform="translate(0.001 756.437)" fill="#fff"/>
      <path id="Path_31" data-name="Path 31"
            d="M401.851,599.884,6.1,959.366v3.951L403.579,602.223,724.5,411.089,1328.7,925.167l.763.649,349.867-189.131L2073.8,956.111v-3.348L1680.05,733.737l-.7-.389L1329.832,922.292,725.607,408.186l-.8-.678Z"
            transform="translate(0.001 784.159)" fill="#fff"/>
      <path id="Path_32" data-name="Path 32"
            d="M394.637,608.557,6.1,952.031v3.9L396.351,610.911,720.9,418.3l576.516,501.181.722.632,382.318-182.689L2073.8,953.382v-3.337L1681.208,734.5l-.658-.363-381.938,182.5L721.23,414.709Z"
            transform="translate(0.001 798.017)" fill="#fff"/>
      <path id="Path_33" data-name="Path 33"
            d="M387.423,617.227,6.105,944.717v3.857L389.122,619.6,717.3,425.514,1266.132,913.8l.69.614,414.769-176.241L2073.8,950.654v-3.325l-392.053-212.4L1267.384,911,718.446,422.619l-.8-.708Z"
            transform="translate(0.002 811.876)" fill="#fff"/>
      <path id="Path_34" data-name="Path 34"
            d="M380.214,625.9,6.105,937.434v3.807L381.893,628.285,713.7,432.729l521.148,475.383.661.608,447.219-169.8,391.07,209v-3.313L1683.518,736.03l-.585-.316L1236.155,905.346,714.074,429.112Z"
            transform="translate(0.001 825.733)" fill="#fff"/>
      <path id="Path_35" data-name="Path 35"
            d="M373.006,634.574,6.1,930.181v3.752L374.664,636.972,710.091,439.943,1203.558,902.43l.64.6,479.667-163.353L2073.8,945.2v-3.307L1684.679,736.8l-.558-.293-479.2,163.19L711.293,437.065l-.8-.752Z"
            transform="translate(0.001 839.591)" fill="#fff"/>
      <path id="Path_36" data-name="Path 36"
            d="M365.8,643.244,6.1,922.952v3.705l361.336-281,339.044-198.5,465.783,449.579.623.6,512.124-156.911L2073.8,942.474v-3.3L1685.83,737.555l-.532-.272L1173.683,894.037,707.722,444.288l-.8-.772Z"
            transform="translate(0.001 853.45)" fill="#fff"/>
      <path id="Path_37" data-name="Path 37"
            d="M358.595,651.913,6.1,915.754v3.655l354.1-265.06L702.879,454.378l438.1,436.674.6.6,544.583-150.466,387.631,198.562v-3.284L1686.985,738.323l-.5-.257L1142.443,888.38l-438.3-436.867-.8-.8Z"
            transform="translate(0 867.307)" fill="#fff"/>
      <path id="Path_38" data-name="Path 38"
            d="M351.389,660.583,6.1,908.591V912.2L352.98,663.036,699.268,461.6l410.42,423.764.588.605L1687.31,741.945l386.485,195.079v-3.275L1688.146,739.088l-.489-.246L1111.2,882.723l-411.423-424.8Z"
            transform="translate(0 881.164)" fill="#fff"/>
      <path id="Path_39" data-name="Path 39"
            d="M344.19,669.256,6.1,901.468v3.55L345.752,671.727,695.66,468.817l382.733,410.856.573.614L1688.46,742.7,2073.8,934.3v-3.266L1688.831,739.623,1079.963,877.065,697,465.969l-.8-.851Z"
            transform="translate(0.001 895.019)" fill="#fff"/>
      <path id="Path_40" data-name="Path 40"
            d="M336.99,677.929,6.1,894.385v3.494L338.522,680.418l353.52-204.375L1047.1,873.982l.559.626L1689.62,743.471,2073.8,931.584V928.33l-383.338-187.7-.45-.219-641.284,131-355.289-398.2-.79-.892Z"
            transform="translate(0 908.872)" fill="#fff"/>
      <path id="Path_41" data-name="Path 41"
            d="M329.791,686.6,6.1,887.334v3.442L331.294,689.111,688.422,483.268l327.385,385.02.547.644,674.413-124.7L2073.8,928.867v-3.246l-382.19-184.23-.427-.208L1017.486,865.747l-327.622-385.3-.787-.93Z"
            transform="translate(0.001 922.725)" fill="#fff"/>
      <path id="Path_42" data-name="Path 42"
            d="M322.6,695.272,6.105,880.327v3.386L324.062,697.8,684.808,490.5,985.044,863.252,1691.928,745,2073.8,926.145v-3.231L1692.762,742.16l-.412-.2-706.1,118.124L686.3,487.689l-.784-.974Z"
            transform="translate(0.002 936.578)" fill="#fff"/>
      <path id="Path_43" data-name="Path 43"
            d="M315.409,703.946,6.1,873.367V876.7L316.839,706.5,681.184,497.729,953.21,856.889l.526.693,739.35-111.81L2073.8,923.434v-3.228l-379.876-177.27-.4-.187L955.017,854.43,681.962,493.913Z"
            transform="translate(0 950.428)" fill="#fff"/>
      <path id="Path_44" data-name="Path 44"
            d="M308.224,712.618,6.1,866.453v3.281L309.61,715.192,677.549,504.968,921.908,851.185l.512.725L1694.241,746.54,2073.8,920.719V917.5L1695.074,743.7l-.386-.176L923.783,848.773,679.172,502.2l-.763-1.085Z"
            transform="translate(0 964.279)" fill="#fff"/>
      <g id="Group_2" data-name="Group 2" transform="translate(6.106)">
        <g id="Group_1" data-name="Group 1" clipPath="url(#clipPath-2)">
          <path id="Path_45" data-name="Path 45"
                d="M2094.75,919.682c-3.129-1.67-382.093-168.389-394.527-168.64-6,.252-178.5,23.365-180.238,23.6L925.142,841.267l-62.811-82.084L668.436,513.438,310.7,718.819,2.211,877.26l-1.336-2.6L309.3,716.251,669.167,509.645,864.641,757.39l61.819,80.786,593.168-66.44c7.086-.95,174.337-23.359,180.49-23.617l.041,0c11.7,0,395.089,167.608,396.484,169.41l-1.155.895-1.4-.421,1.4.421Z"
                transform="translate(-16.169 980.701)" fill="#fff"/>
          <path id="Path_46" data-name="Path 46"
                d="M2094.637,913.612c-2.843-1.623-373.794-158.031-398.586-158.031-.073,0-.143,0-.214,0-12.106.506-179.568,22.5-181.259,22.719L917.753,830.624,852.228,751.6,649.2,521.908,301.67,722.446,2.25,877.629.9,875.035,300.267,719.881l349.545-201.7.793.895L854.448,749.7l64.577,77.874L1514.257,775.4c6.846-.9,169.223-22.224,181.461-22.736,11.709-.38,119.764,42.358,208.247,78.382,76.879,31.3,191.535,79.046,192.626,80.45l.462.6-.216.728-2.8-.845,1.4.421Z"
                transform="translate(-16.117 997.129)" fill="#fff"/>
          <path id="Path_47" data-name="Path 47"
                d="M2094.533,907.549c-2.55-1.526-365.561-147.428-402.589-147.428-.179,0-.348,0-.515.009-18.192.76-180.627,21.631-182.268,21.841L910.354,819.985l-68.232-75.961L629.971,530.378,292.64,726.074,2.282,878,.931,875.412l290.3-151.9,339.229-196.8,213.788,215.3,67.338,74.964,597.3-37.916c6.6-.851,164.1-21.087,182.426-21.853.158-.006.327-.009.5-.009,19.008,0,126.519,39.428,213.8,72.683,82.488,31.424,189.54,73.806,190.918,75.581l.462.6-.213.734-2.8-.845,1.4.424Z"
                transform="translate(-16.061 1013.553)" fill="#fff"/>
          <path id="Path_48" data-name="Path 48"
                d="M2094.441,901.487c-3.4-2.117-93.2-36.352-190.289-70.753-120.439-42.674-197.05-66.074-216.271-66.074-.3,0-.585.006-.854.017-24.28,1.012-181.683,20.76-183.271,20.958l-600.8,23.71-70.94-72.905L610.741,538.85,283.61,729.7,2.321,878.371.958,875.786,282.192,727.144,611.1,535.253,834.04,734.33l70.107,72.045,599.37-23.649c1.462-.19,158.987-19.955,183.391-20.97.3-.015.617-.02.948-.02,25.184,0,132.882,36.311,219.415,67,81.424,28.88,187.52,68.519,189.2,70.692l.465.6-.213.746-1.4-.424Z"
                transform="translate(-16.009 1029.978)" fill="#fff"/>
          <path id="Path_49" data-name="Path 49"
                d="M2094.356,895.428c-3.55-2.281-90.6-33.661-188.52-65.755-121.753-39.911-200.974-61.355-223.214-60.451-30.369,1.266-182.744,19.894-184.28,20.081l-602.78,9.408-73.645-69.849L591.5,547.322l-316.922,186L2.361,878.742.987,876.163,273.153,730.777,591.742,543.789,823.828,726.65l72.882,69.118,601.432-9.378c1.383-.176,153.876-18.818,184.361-20.09,29.047-1.237,139.178,32.67,226.427,61.307,86.635,28.436,185.7,63.486,187.485,65.788l.462.594-.2.757-1.4-.421Z"
                transform="translate(-15.953 1046.404)" fill="#fff"/>
          <path id="Path_50" data-name="Path 50"
                d="M2094.275,889.371c-3.556-2.342-89.822-31.562-186.724-60.74-121.185-36.492-202.6-55.956-229.328-54.862-36.457,1.521-183.806,19.026-185.288,19.2L888.168,788.08l-76.347-66.805L572.267,555.792,265.553,736.955,2.4,879.113l-1.386-2.574,263.1-142.132L572.393,552.324,813.617,718.973l75.66,66.191,603.5,4.893c1.3-.167,148.759-17.683,185.329-19.21,34.837-1.447,145.667,29.459,232.492,55.646,87.331,26.342,183.745,58.258,185.765,60.863l.462.6-.2.769-2.8-.845,1.4.424Z"
                transform="translate(-15.902 1062.828)" fill="#fff"/>
          <path id="Path_51" data-name="Path 51"
                d="M2094.2,883.315c-3.623-2.442-87.124-28.883-184.917-55.708-69.861-19.163-193.319-51.093-235.464-49.292-42.546,1.775-184.864,18.16-186.294,18.324L880.773,777.447l-.38-.307-78.663-63.451L553.037,564.267,256.529,740.581,2.444,879.484l-1.4-2.565,254.038-138.88L553.039,560.86l.752.45L803.4,711.3l78.447,63.258L1487.4,793.724c1.219-.155,143.647-16.551,186.3-18.329,40.586-1.7,152.177,26.251,238.569,50,88.688,24.377,181.838,53.087,184.037,55.924l.462.6-.2.787-2.8-.848,1.4.424Z"
                transform="translate(-15.851 1079.254)" fill="#fff"/>
          <path id="Path_52" data-name="Path 52"
                d="M2.483,879.856,1.068,877.3,246.041,741.675,533.694,569.394,793.177,703.63l81.234,60.316,607.619,33.448c1.14-.146,138.529-15.42,187.265-17.455,48.853-2.035,174.282,26.924,244.643,44.37,89.378,22.16,179.943,47.92,182.308,50.97l.462.6-.193.8-2.8-.845,1.4.424-.995,1c-10.58-7.237-340.971-97.9-424.708-94.4-48.634,2.027-185.923,17.291-187.3,17.443L873.37,766.818,791.633,706.1,533.8,572.742,247.5,744.208Z"
                transform="translate(-15.798 1095.675)" fill="#fff"/>
          <path id="Path_53" data-name="Path 53"
                d="M2.527,880.227l-1.433-2.55L237,745.309l277.342-167.38.7.3L782.954,695.968l84.026,57.369,609.681,47.727c1.058-.14,133.42-14.288,188.236-16.575,55.111-2.3,180.741,23.292,250.719,38.75,83.342,18.411,177.849,42.487,180.574,46l.462.6-.187.822-1.4-.424-1.009.974c-4-2.769-85.184-24.429-181.294-45.6-69.165-15.236-193.275-40.472-247.745-38.191-54.719,2.281-186.987,16.423-188.315,16.563l-610.728-47.78-84.436-57.681L514.56,581.216,238.479,747.836Z"
                transform="translate(-15.748 1112.099)" fill="#fff"/>
          <path id="Path_54" data-name="Path 54"
                d="M2.566,880.6l-1.445-2.541L227.966,748.945,495,586.463l.661.243L772.874,688.363l.129.082,86.55,54.284,611.587,61.992c5.047-.515,129.394-13.183,189.353-15.683,61.334-2.562,187.233,19.669,256.8,33.144,84.082,16.291,176.01,37.375,178.834,41.016l.462.6-.181.839-1.4-.421-1.03.942c-7.907-5.521-326.628-77.64-433.37-73.2-60.81,2.536-188.043,15.554-189.324,15.686l-.149.015-.149-.015L858.576,745.567l-87-54.564L495.316,589.694,229.449,751.463Z"
                transform="translate(-15.696 1128.521)" fill="#fff"/>
          <path id="Path_55" data-name="Path 55"
                d="M2.609,880.973,1.147,878.44,218.93,752.582,475.662,595l287.153,85.8,89.311,51.321,613.631,76.274c5.126-.5,124.469-12.057,190.336-14.8,67.635-2.825,193.757,16.051,262.887,27.555,84.836,14.116,174.208,32.293,177.1,36.013l.462.6-.178.863-2.8-.845,1.4.421-1.044.915c-3.927-2.758-79.836-19.236-177.665-35.451-68.384-11.337-193.1-29.936-260.042-27.146-66.9,2.79-189.108,14.686-190.333,14.806l-.164.018-.161-.02L851.178,734.945l-.254-.146-89.416-51.386-285.43-85.24L220.424,755.094Z"
                transform="translate(-15.646 1144.945)" fill="#fff"/>
          <path id="Path_56" data-name="Path 56"
                d="M2.654,881.346l-1.48-2.521L209.892,756.219,456.324,603.53l.588.14,295.551,69.39.167.088L844.7,721.5l615.676,90.553c5.182-.477,119.562-10.928,191.318-13.923,125.23-5.255,438.818,45.867,444.33,52.979l.465.6-.176.883-1.4-.424-1.056.886c-9.334-6.559-312.972-57.371-442.046-52-72.987,3.044-190.166,13.823-191.342,13.931l-.175.014-.175-.026-616.34-90.65-92.343-48.5L456.83,606.656,211.4,758.722Z"
                transform="translate(-15.594 1161.363)" fill="#fff"/>
          <path id="Path_57" data-name="Path 57"
                d="M2.7,881.718l-1.5-2.509L200.854,759.857,436.99,612.064l.55.1,304.722,53.257.181.085,94.829,45.391,617.723,104.832c5.24-.45,114.679-9.8,192.3-13.039,135.058-5.641,442.713,34.7,448.672,42.385l.462.6-.167.9-2.8-.845,1.4.424-1.064.857c-7.346-5.144-303.093-47.379-446.383-41.4-79.076,3.3-191.231,12.951-192.357,13.048l-.184.015-.187-.029L836.38,713.706l-.187-.088-94.832-45.391L437.59,615.137,202.381,762.351Z"
                transform="translate(-15.546 1177.785)" fill="#fff"/>
          <path id="Path_58" data-name="Path 58"
                d="M2.746,882.092l-1.521-2.5,190.59-116.1L417.655,620.6l.515.061,313.887,37.121,97.791,42.5L1449.611,819.4c5.261-.418,109.8-8.679,193.283-12.162,145.977-6.1,447.181,24.263,453.021,31.793l.459.6-.161.927-1.4-.421-1.07.83c-7.79-5.41-293.97-37.328-450.729-30.8-85.167,3.553-192.3,12.086-193.368,12.174l-.2.014-.2-.038L828.978,703.091l-.149-.064-97.542-42.393-312.948-37.01-224.98,142.36Z"
                transform="translate(-15.496 1194.204)" fill="#fff"/>
          <path id="Path_59" data-name="Path 59"
                d="M2.792,882.465,1.251,879.98,182.776,767.14,398.319,629.129l.48.032,323.06,20.981.211.082,100.464,39.487,621.7,133.359c5.246-.38,104.941-7.556,194.263-11.282,154.46-6.442,451.077,13.092,457.367,21.2l.462.6-.161.953-2.8-.845,1.4.421-1.076.807c-8.109-5.559-287.013-27.214-455.074-20.21-91.258,3.808-193.356,11.218-194.38,11.291l-.208.017-.2-.044L821.694,692.5,721.213,653.032l-322.122-20.92-214.756,137.5Z"
                transform="translate(-15.445 1210.623)" fill="#fff"/>
          <path id="Path_60" data-name="Path 60"
                d="M2.848,882.839l-1.573-2.468L173.738,770.786,379,637.661l.442.009,332.222,4.843.225.082,103.2,36.486L1438.85,826.745c5.235-.339,100.107-6.434,195.246-10.4,166.974-6.968,455.662,2.8,461.715,10.6l.465.594-.161.979-1.4-.424-1.076.781c-9.627-6.48-289.762-16.695-459.425-9.612-97.347,4.059-194.421,10.349-195.392,10.413l-.219.015-.216-.053L814.255,681.882,711.139,645.428,379.844,640.6,175.32,773.245Z"
                transform="translate(-15.399 1227.041)" fill="#fff"/>
          <path id="Path_61" data-name="Path 61"
                d="M2.895,890.652,1.3,888.2l163.4-106.33L359.669,653.633l.412-.012,341.387-11.3.237.076L807.62,675.9,1433.472,837.86c5.173-.29,95.276-5.313,196.228-9.524,167.485-6.986,459.753-8.124,466.061.009l.462.6-.155,1-2.8-.845,1.4.421-1.082.758c-9.513-6.252-279.187-6.72-463.768.979-103.441,4.316-195.494,9.484-196.41,9.533l-.231.015-.219-.059L806.815,678.7,701.062,645.264,360.587,656.531,166.3,784.316Z"
                transform="translate(-15.349 1236.015)" fill="#fff"/>
          <path id="Path_62" data-name="Path 62"
                d="M2.948,901.657l-1.623-2.433L340.349,672.8l.38-.029,350.546-27.436.249.07,736.571,206.764c7.182-.333,169.076-7.831,329.92-13.958,331.95-12.642,336.12-7.29,337.69-5.278a1.794,1.794,0,0,1,.316,1.629l-2.8-.845a1.09,1.09,0,0,0,.322,1.158c-12.911-8.22-484.814,11.811-665.552,20.227l-.237.009-.225-.061L690.982,648.289,341.337,675.654Z"
                transform="translate(-15.303 1241.802)" fill="#fff"/>
          <path id="Path_63" data-name="Path 63"
                d="M2.746,901.575,1.26,899.2,343.085,685.368l350.086-25.935.228.058,736.329,195.284c6.872-.3,168.655-7.4,329.341-13.191,331.26-11.94,335.2-6.863,336.685-4.951l.448.57-.149.968-2.684-.807,1.342.4-1.018.734c-12.583-7.808-483.621,11.13-664.052,19.081l-.213.012-.208-.056L692.909,662.264,343.98,688.112Z"
                transform="translate(-15.428 1268.936)" fill="#fff"/>
          <path id="Path_64" data-name="Path 64"
                d="M2.547,901.494l-1.354-2.316L345.82,697.94l.31-.021,348.937-24.385.208.05,736.092,183.8c110.126-4.579,656.879-26.81,664.435-17.052l.424.544-.146.906-2.564-.772,1.284.386-.956.731c-11.841-7.112-438.564,8.624-662.555,17.943l-.193.006-.19-.044L694.827,676.239l-348.2,24.33Z"
                transform="translate(-15.557 1296.07)" fill="#fff"/>
          <path id="Path_65" data-name="Path 65"
                d="M2.349,901.406l-1.222-2.249L348.555,710.512l.278-.017,348.13-22.859.187.044L1433.005,860c109.889-4.293,655.733-25.149,662.847-15.966l.4.523-.144.848-2.45-.74,1.225.369-.892.725c-11.522-6.7-437.45,8.062-661.064,16.8l-.173.009-.167-.041-735.84-172.31L349.28,713.027Z"
                transform="translate(-15.684 1323.205)" fill="#fff"/>
          <path id="Path_66" data-name="Path 66"
                d="M2.157,901.318l-1.1-2.176L351.29,723.083l.249-.015,347.329-21.333.167.035L1434.646,862.6c109.652-4.015,654.615-23.494,661.256-14.879l.383.5-.14.789-2.331-.7,1.167.354-.834.716c-11.177-6.287-436.323,7.5-659.563,15.668l-.155.006-.152-.035-735.6-160.83-346.744,21.3Z"
                transform="translate(-15.813 1350.339)" fill="#fff"/>
          <path id="Path_67" data-name="Path 67"
                d="M1.962,901.23l-.971-2.1,353.034-163.47.219-.012,346.525-19.809.149.032,735.507,149.372c108.821-3.737,653.329-21.871,659.531-13.817l.36.471-.135.731-2.214-.667,1.108.333-.775.71c-10.831-5.869-435.189,6.936-658.066,14.531L700.6,718.164,354.6,737.946Z"
                transform="translate(-15.946 1377.471)" fill="#fff"/>
          <path id="Path_68" data-name="Path 68"
                d="M1.779,901.128l-.857-2.015L356.758,748.225l.193-.009L702.545,729.94l735.51,137.9c108.666-3.451,652.218-20.192,657.955-12.732l.345.448-.132.681-1.053-.319-.714.7c-10.455-5.448-434.046,6.384-656.569,13.4L702.4,732.113,357.261,750.4Z"
                transform="translate(-16.079 1404.611)" fill="#fff"/>
          <path id="Path_69" data-name="Path 69"
                d="M1.6,901.038.851,899.1l358.64-138.3.164-.009,344.814-16.756L1439.686,870.45c108.514-3.164,651.106-18.531,656.379-11.648l.325.421-.129.626-1.983-.6.991.3-.658.688c-10.057-5.021-432.9,5.828-655.069,12.267l-735.2-126.411L359.924,762.857Z"
                transform="translate(-16.215 1431.742)" fill="#fff"/>
          <path id="Path_70" data-name="Path 70"
                d="M1.421,900.94.781,899.1,362.222,773.378l.143-.006L706.4,758.139,1441.33,873.055c1.448-.053,164.041-4.34,325.128-7.811,326.388-7.033,328.684-4.03,329.663-2.749l.3.395-.123.576-1.868-.561.936.281-.6.67c-9.653-4.594-431.735,5.278-653.568,11.136L706.288,760.078,362.594,775.313Z"
                transform="translate(-16.35 1458.875)" fill="#fff"/>
          <path id="Path_71" data-name="Path 71"
                d="M1.255,900.841.708,899.1,364.954,785.952l.12,0L708.323,772.24l734.647,103.423c1.471-.05,163.792-3.91,324.551-7.036,325.7-6.331,327.774-3.605,328.655-2.445l.281.371-.117.526-1.746-.529.872.266-.538.652c-9.211-4.156-430.56,4.731-652.066,10.013L708.233,774.059,365.267,787.768Z"
                transform="translate(-16.49 1486.009)" fill="#fff"/>
          <path id="Path_72" data-name="Path 72"
                d="M1.086,900.738l-.45-1.643L367.593,798.558,710.254,786.34l734.358,91.931c1.494-.044,163.543-3.477,323.975-6.258,325-5.624,326.853-3.185,327.649-2.144l.263.348-.111.479-1.635-.494.816.249-.48.635c-8.764-3.72-429.381,4.185-650.565,8.881L710.178,788.039,367.85,800.23Z"
                transform="translate(-16.629 1513.141)" fill="#fff"/>
          <path id="Path_73" data-name="Path 73"
                d="M.927,900.636l-.366-1.541,369.781-87.971,341.843-10.682,734.074,80.435c1.515-.035,163.3-3.044,323.4-5.474,324.306-4.927,325.943-2.769,326.636-1.848l.246.322-.108.432-1.518-.456.763.228-.424.611c-8.267-3.275-428.188,3.647-649.065,7.764L712.124,802.017,370.55,812.685Z"
                transform="translate(-16.773 1540.275)" fill="#fff"/>
          <path id="Path_74" data-name="Path 74"
                d="M.776,900.531.484,899.1l372.609-75.405L714.12,814.54l733.8,68.946c1.532-.029,163.035-2.612,322.814-4.7,323.613-4.223,324.975-2.421,325.634-1.553l.222.3-.1.392-1.4-.421.7.211-.365.588c-7.746-2.825-426.969,3.109-647.562,6.644L714.073,816,373.26,825.14Z"
                transform="translate(-16.921 1567.406)" fill="#fff"/>
          <path id="Path_75" data-name="Path 75"
                d="M.629,900.423.407,899.1l375.434-62.837,340.217-7.623,733.513,57.453c1.553-.023,162.78-2.179,322.23-3.916,322.926-3.521,324.075-2,324.625-1.263l.208.272-.091.351-1.286-.386.643.193-.31.558c-8.966-2.971-639.69,5.439-646.059,5.527L716.023,829.977,375.967,837.6Z"
                transform="translate(-17.07 1594.54)" fill="#fff"/>
          <path id="Path_76" data-name="Path 76"
                d="M.49,900.317.329,899.11l378.259-50.269,339.407-6.1L1451.233,888.7c1.564-.017,162.52-1.743,321.642-3.135,322.23-2.819,323.133-1.614,323.616-.974l.188.248-.088.31-.588-.175h.006l-.011.006-.243.523c-8.156-2.392-638.187,4.346-644.553,4.416L717.969,843.961l-339.287,6.094ZM2095.426,884.8l.564.173v0Z"
                transform="translate(-17.22 1621.673)" fill="#fff"/>
          <path id="Path_77" data-name="Path 77"
                d="M.357,900.208l-.108-1.091,381.084-37.7,338.6-4.574L1452.9,891.313c1.573-.012,162.257-1.307,321.051-2.351,321.543-2.111,322.236-1.184,322.607-.687l.167.222-.079.275-.524-.158-.006,0-.193.492c-7.258-1.81-636.689,3.249-643.044,3.3L719.915,857.938,381.4,862.508Z"
                transform="translate(-17.374 1648.805)" fill="#fff"/>
          <path id="Path_78" data-name="Path 78"
                d="M.231,900.1l-.064-.974,383.912-25.137,337.8-3.044,732.694,22.982c1.585-.009,162-.874,320.466-1.571,320.849-1.406,321.3-.807,321.6-.406l.146.2-.07.24-.465-.14h0l-.137.459c-6.173-1.225-635.2,2.161-641.547,2.2L721.868,871.916,384.114,874.96Z"
                transform="translate(-17.531 1675.939)" fill="#fff"/>
          <path id="Path_79" data-name="Path 79"
                d="M.113,899.984l-.029-.851L386.82,886.565l337-1.524,732.428,11.489c1.594,0,161.734-.436,319.875-.783,320.148-.7,320.367-.421,320.587-.129l-.7.485.357-.231-.085.418c-4.752-.62-633.689,1.076-640.04,1.094l-732.425-11.49-336.983,1.524Z"
                transform="translate(-17.691 1703.07)" fill="#fff"/>
          <rect id="Rectangle_3" data-name="Rectangle 3" width="2096.495" height="0.731"
                transform="translate(-17.853 2629.346)" fill="#fff"/>
        </g>
      </g>
      <rect id="Rectangle_5" data-name="Rectangle 5" width="2067.691" height="0.731"
            transform="translate(6.106 2658.019)" fill="#fff"/>
      <rect id="Rectangle_6" data-name="Rectangle 6" width="2067.691" height="0.731"
            transform="translate(6.106 2689.94)" fill="#fff"/>
      <rect id="Rectangle_7" data-name="Rectangle 7" width="2067.691" height="0.728"
            transform="translate(6.106 2721.865)" fill="#fff"/>
      <rect id="Rectangle_8" data-name="Rectangle 8" width="2067.691" height="0.728"
            transform="translate(6.106 2753.786)" fill="#fff"/>
      <rect id="Rectangle_9" data-name="Rectangle 9" width="2067.691" height="0.731"
            transform="translate(6.106 2785.705)" fill="#fff"/>
      <rect id="Rectangle_10" data-name="Rectangle 10" width="2067.691" height="0.731"
            transform="translate(6.106 2817.626)" fill="#fff"/>
      <rect id="Rectangle_11" data-name="Rectangle 11" width="2067.691" height="0.731"
            transform="translate(6.106 2849.547)" fill="#fff"/>
      <rect id="Rectangle_12" data-name="Rectangle 12" width="2067.691" height="0.728"
            transform="translate(6.106 2881.469)" fill="#fff"/>
      <rect id="Rectangle_13" data-name="Rectangle 13" width="2067.691" height="0.731"
            transform="translate(6.106 2908.478)" fill="#fff"/>
    </g>
    <path id="Path_106" data-name="Path 106"
          d="M150.091,815.019,6.1,839.6v2.965l145.55-24.842,397.738-482.46,272.526,93.115,384.3,261.919.629.43,273.1-103.757,39.881,36.013,187.631,88.945,68.609,58.222,297.724-66.9v-3l-296.943,66.726-67.645-57.4-.146-.126-187.59-88.924L1480.584,583.6l-273.35,103.847L823.4,425.847l-.164-.111L549.381,332.165l-.959-.328Z"
          transform="translate(-283.95 303.596)" fill="#fff" opacity="0.25"/>
    <path id="Path_107" data-name="Path 107"
          d="M409.308,591.026l-.132.082L6.1,966.729v4L410.939,593.459,728.107,403.878l632.683,527.643,317.422-195.573L2073.8,958.839v-3.354l-394.9-222.509-.752-.424L1361.051,927.93,729.186,400.968l-.8-.664Z"
          transform="translate(-283.95 435.346)" fill="#fff" opacity="0.25"/>
  </g>
</svg>
