<svg width="64" height="64" viewBox="0 0 64 64" fill="none" xmlns="http://www.w3.org/2000/svg">
<g clip-path="url(#clip0_338_26215)">
<rect width="64" height="64" fill="#666666"/>
<path d="M45.3636 39.9802C44.8332 41.2284 44.1967 42.3693 43.4734 43.4225C42.48 44.856 41.6602 45.8507 41.0334 46.4065C40.0593 47.3134 39.0176 47.7717 37.8989 47.801C37.0985 47.801 36.134 47.5669 35.0056 47.0988C33.8772 46.6308 32.8357 46.4065 31.8905 46.4065C30.8972 46.4065 29.8266 46.6406 28.6886 47.0988C27.5409 47.5669 26.6247 47.8107 25.9207 47.8302C24.8502 47.879 23.7796 47.4011 22.7187 46.3967C22.034 45.7921 21.1852 44.7681 20.1726 43.3152C19.0828 41.7549 18.1762 39.9606 17.4722 37.903C16.7199 35.6796 16.3438 33.5342 16.3438 31.4474C16.3438 29.0582 16.8549 27.0006 17.8772 25.2843C18.6777 23.8995 19.7483 22.8073 21.0792 22.0077C22.4198 21.2081 23.8567 20.7985 25.4095 20.7692C26.2582 20.7692 27.377 21.0326 28.7657 21.5591C30.1449 22.0857 31.0322 22.3489 31.4275 22.3489C31.7169 22.3489 32.7006 22.0369 34.3787 21.4128C35.9604 20.8374 37.2913 20.6034 38.3907 20.6912C41.3515 20.9349 43.5793 22.1149 45.0549 24.2408C42.4027 25.8596 41.1007 28.1318 41.12 31.0475C41.1393 33.3196 41.9591 35.2115 43.56 36.7132C44.2833 37.4056 45.0935 37.9517 46 38.332C45.7878 38.9074 45.5853 39.4534 45.3635 39.9801L45.3636 39.9802ZM38.574 12.958C38.574 14.7426 37.9278 16.4004 36.6451 17.9411C35.102 19.7745 33.231 20.8276 31.196 20.6619C31.1671 20.4474 31.1574 20.2231 31.1574 19.989C31.1574 18.2825 31.8903 16.4491 33.202 14.9572C33.8578 14.1965 34.6873 13.5724 35.6903 13.0653C36.6933 12.568 37.648 12.2949 38.5353 12.2461C38.5546 12.4802 38.574 12.7241 38.574 12.958Z" fill="white"/>
<path d="M42.4523 64H21.548L32.0001 53.5479L42.4523 64ZM10.4523 32L0.00012207 42.4521V21.5479L10.4523 32ZM64.0001 42.4521L53.548 32L64.0001 21.5479V42.4521ZM32.0001 10.4521L21.548 0H42.4523L32.0001 10.4521Z" fill="black" fill-opacity="0.5"/>
</g>
<defs>
<clipPath id="clip0_338_26215">
<rect width="64" height="64" fill="white"/>
</clipPath>
</defs>
</svg>
