<svg width="64" height="64" viewBox="0 0 64 64" fill="none" xmlns="http://www.w3.org/2000/svg">
<g clip-path="url(#clip0_338_26370)">
<rect width="64" height="64" fill="#BE862D"/>
<path opacity="0.8" d="M22.587 29.3562C22.3244 28.8725 21.9444 28.5063 21.447 28.2576C20.9633 27.9951 20.3899 27.8638 19.7266 27.8638C18.5797 27.8638 17.6608 28.2438 16.9698 29.0038C16.2789 29.75 15.9335 30.7518 15.9335 32.0093C15.9335 33.3496 16.2927 34.3998 17.0113 35.1598C17.7437 35.906 18.7455 36.2791 20.0168 36.2791C20.8873 36.2791 21.6197 36.058 22.2139 35.6158C22.8219 35.1737 23.2641 34.538 23.5404 33.7089H19.0426V31.0973H26.7532V34.3929C26.4906 35.2773 26.0415 36.0995 25.4059 36.8595C24.7841 37.6195 23.9895 38.2344 23.0222 38.7042C22.055 39.1741 20.9633 39.409 19.7473 39.409C18.3102 39.409 17.0251 39.098 15.892 38.4762C14.7727 37.8406 13.8953 36.9631 13.2596 35.8438C12.6378 34.7246 12.3269 33.4464 12.3269 32.0093C12.3269 30.5722 12.6378 29.294 13.2596 28.1747C13.8953 27.0416 14.7727 26.1641 15.892 25.5423C17.0113 24.9067 18.2895 24.5889 19.7266 24.5889C21.4677 24.5889 22.9324 25.0103 24.1208 25.8532C25.323 26.6962 26.1175 27.8638 26.5044 29.3562H22.587ZM32.2608 36.5693H36.9038V39.3053H28.7164V24.7547H32.2608V36.5693ZM44.0457 24.7547C45.5795 24.7547 46.9199 25.0587 48.0668 25.6667C49.2137 26.2747 50.0981 27.1314 50.7199 28.2369C51.3555 29.3285 51.6733 30.5929 51.6733 32.03C51.6733 33.4533 51.3555 34.7177 50.7199 35.8231C50.0981 36.9286 49.2068 37.7853 48.046 38.3933C46.8991 39.0013 45.5657 39.3053 44.0457 39.3053H38.5944V24.7547H44.0457ZM43.8177 36.2377C45.158 36.2377 46.2013 35.8715 46.9475 35.1391C47.6937 34.4067 48.0668 33.3704 48.0668 32.03C48.0668 30.6896 47.6937 29.6464 46.9475 28.9002C46.2013 28.154 45.158 27.7809 43.8177 27.7809H42.1387V36.2377H43.8177Z" fill="black"/>
<path d="M42.4523 64H21.548L32.0001 53.5479L42.4523 64ZM10.4523 32L0.00012207 42.4521V21.5479L10.4523 32ZM64.0001 42.4521L53.548 32L64.0001 21.5479V42.4521ZM32.0001 10.4521L21.548 0H42.4523L32.0001 10.4521Z" fill="black" fill-opacity="0.5"/>
</g>
<defs>
<clipPath id="clip0_338_26370">
<rect width="64" height="64" fill="white"/>
</clipPath>
</defs>
</svg>
