<svg width="64" height="64" viewBox="0 0 64 64" fill="none" xmlns="http://www.w3.org/2000/svg">
<g clip-path="url(#clip0_338_26219)">
<rect width="64" height="64" fill="#4285F4"/>
<path d="M50.2931 32.4256C50.2931 31.102 50.1743 29.8292 49.9537 28.6074H32.373V35.8365H42.4191C41.9779 38.1614 40.6543 40.1299 38.6688 41.4535V46.1541H44.727C48.2567 42.8959 50.2931 38.1105 50.2931 32.4256Z" fill="white"/>
<path d="M32.3735 50.667C37.4135 50.667 41.639 49.004 44.7275 46.1531L38.6693 41.4525C37.0063 42.5725 34.885 43.2512 32.3735 43.2512C27.5202 43.2512 23.3965 39.9761 21.9202 35.564H15.7092V40.3834C18.7808 46.4755 25.0765 50.667 32.3735 50.667Z" fill="white"/>
<path d="M21.9197 35.548C21.5463 34.428 21.3257 33.2401 21.3257 32.0013C21.3257 30.7625 21.5463 29.5747 21.9197 28.4547V23.6353H15.7087C14.436 26.1468 13.7063 28.9807 13.7063 32.0013C13.7063 35.0219 14.436 37.8559 15.7087 40.3674L20.5451 36.6001L21.9197 35.548Z" fill="white"/>
<path d="M32.3735 20.7662C35.1226 20.7662 37.5663 21.7165 39.5178 23.5493L44.8632 18.2038C41.622 15.1832 37.4135 13.3335 32.3735 13.3335C25.0765 13.3335 18.7808 17.525 15.7092 23.6341L21.9202 28.4535C23.3965 24.0414 27.5202 20.7662 32.3735 20.7662Z" fill="white"/>
<path d="M42.4523 64H21.548L32.0001 53.5479L42.4523 64ZM10.4523 32L0.00012207 42.4521V21.5479L10.4523 32ZM64.0001 42.4521L53.548 32L64.0001 21.5479V42.4521ZM32.0001 10.4521L21.548 0H42.4523L32.0001 10.4521Z" fill="black" fill-opacity="0.5"/>
</g>
<defs>
<clipPath id="clip0_338_26219">
<rect width="64" height="64" fill="white"/>
</clipPath>
</defs>
</svg>
