<svg width="64" height="64" viewBox="0 0 64 64" fill="none" xmlns="http://www.w3.org/2000/svg">
<g clip-path="url(#clip0_338_28347)">
<rect width="64" height="64" fill="#4CCA47"/>
<path d="M26.5104 26.3247V23.8025C26.7884 23.8025 27.0663 23.8025 27.2053 23.8025C34.1543 23.5223 38.7406 29.8277 38.7406 29.8277C38.7406 29.8277 33.8763 36.6936 28.5951 36.6936C27.9002 36.6936 27.2053 36.5535 26.5104 36.4134V28.5666C29.29 28.8469 29.7069 30.1079 31.3747 32.7702L34.9881 29.6876C34.9881 29.6876 32.3475 26.1846 27.9002 26.1846C27.4833 26.1846 27.0663 26.3247 26.5104 26.3247ZM26.5104 17.7773V21.5606H27.2053C36.9338 21.2804 43.1879 29.5475 43.1879 29.5475C43.1879 29.5475 35.961 38.375 28.4561 38.375C27.7612 38.375 27.2053 38.375 26.5104 38.2349V40.617C27.0663 40.617 27.6222 40.7571 28.1781 40.7571C35.2661 40.7571 40.2694 37.114 45.2726 32.9103C46.1065 33.611 49.442 35.1523 50.1369 35.8529C45.4116 39.7762 34.4322 42.999 28.3171 42.999C27.7612 42.999 27.2053 42.999 26.6494 42.8589V46.2218H53.3334V17.7773H26.5104ZM26.5104 36.2732V38.2349C19.9784 37.114 18.1716 30.2481 18.1716 30.2481C18.1716 30.2481 21.2292 26.7451 26.5104 26.1846V28.4265C23.7308 28.1463 21.6461 30.6684 21.6461 30.6684C21.6461 30.6684 22.8969 35.0122 26.5104 36.2732ZM14.9751 30.1079C14.9751 30.1079 18.8665 24.363 26.5104 23.8025V21.7007C18.0327 22.4013 10.6667 29.6876 10.6667 29.6876C10.6667 29.6876 14.8361 41.8781 26.5104 42.999V40.7571C17.8937 39.6361 14.9751 30.1079 14.9751 30.1079Z" fill="#F7F7FA"/>
<path d="M42.4523 64H21.548L32.0001 53.5479L42.4523 64ZM10.4523 32L0.00012207 42.4521V21.5479L10.4523 32ZM64.0001 42.4521L53.548 32L64.0001 21.5479V42.4521ZM32.0001 10.4521L21.548 0H42.4523L32.0001 10.4521Z" fill="black" fill-opacity="0.5"/>
</g>
<defs>
<clipPath id="clip0_338_28347">
<rect width="64" height="64" fill="white"/>
</clipPath>
</defs>
</svg>
