<svg xmlns="http://www.w3.org/2000/svg" width="128" height="128" viewBox="0 0 128 128"><g transform="translate(-64 -256)"><circle cx="64" cy="64" r="64" transform="translate(64 256)"/><path d="M51.5,8.17l.854-1.484L43.248,0a31.249,31.249,0,0,0-3.633.439C39.432.56,47.464,5.643,51.5,8.17Zm3.942-1.955L53.851,7.27C50.674,4.96,44.454.3,44.987.16a21.919,21.919,0,0,1,4.128.412ZM56.6,6.49h2.195l-3.93-5.133a25.61,25.61,0,0,0-4.429-.87C50.032.6,54.31,4.507,56.6,6.49ZM59.279,6l2.2.214L60.133,3.356l-4.39-1.481Zm1.473-2.644L62.206,6.49l4.393.2C61.106,3.506,60.752,3.356,60.752,3.356Zm-11.2,4.532-.793,1.376C43.022,6.509,33.921,1.521,33.921,1.521A14.054,14.054,0,0,1,37.587.536Zm-3.08,2.428.854-1.052-15-7.692-3.4,1.291Zm-.976.639-.509,1.2L23.981,5.089l2.926-1.413Zm-2.805,2.91.557-1.28L22.078,6,19.517,7.888Zm-1.1.685-.488,1.15L15.37,10.956,17.809,8.85Zm-1.979,3.473L39.67,16.8,13.417,12.585,11.71,14.55ZM38.268,19v1.1L8.3,18.693l1.463-2.208ZM36.714,22.55l.245-1.1L6.588,20.716l-1.1,2.079Zm-1.22,1.3-.232,1.137L3.172,27.7,3.9,25.365ZM34.181,27.7l.338-1.075L1.83,30.257l-.4,2.168ZM16.713,58.273,19.275,56.8l-1.1,1.958Zm12.438-21.9-27.66,9L0,42.125c0,6.362.366,7.829.366,7.829l1.69-3.268.124.216,27.071-9.481ZM2.076,47.63l1.342,1.834-2.074,5.75L.369,50.566ZM3.784,50.2l.712.846-.564-1.019L27.055,40.6l.389.791L4.672,51.252l.454.538c-.569,2.977-1.781,8.856-2.073,8.564a25.8,25.8,0,0,1-1.464-4.282Zm3.781,4.5-.384-.539c-.415,3.964-1.3,11.469-1.69,11.083a21.959,21.959,0,0,1-1.708-3.792l1.708-8.319,1.489.748L6.709,53.5l18.173-8.441.374,1.063Zm-.122.88H9.151c-.162,4.771-.536,14.288-.731,14.19a31.1,31.1,0,0,1-2.2-2.936Zm4.025,1.834H9.882L9.516,71.485A14.038,14.038,0,0,0,12.2,74.176S11.956,63.778,11.468,57.416Zm.976.979,1.464-.122,1.951,19.573-2.439-2.2Zm3.9.857H15.005l2.562,19.94,2.683,1.836Zm1.22.734H19.03l6.1,23.61-2.684-1.224Zm3.9.367-1.1.245,6.953,24.1,2.805.979Zm1.706.612.976-.367L35.375,87.143l-2.562-.367Zm3.781-.367-1.22.367L38.18,87.755H40.62Zm1.708.367H30.13L45.865,88H43.548Zm4.147-.367-1.1.367,17.2,26.79,2.194-.367Zm2.2,0,1.1-.245L56.232,86.042l-2.074.734Zm3.659.246.976-.49L61.112,84.209l-1.83.857ZM63.429,58.27l-.976.367,8.294,5.505V62.552Zm-7.074,1.224.731-.857,14.271,9.542-.61,1.346Zm-4.635-.367-.488.734L69.649,74.418l.732-1.222Zm-5.367.979.854-.612L68.064,77.6l-.854,1.467Zm-4.147.367.854-.612,22.3,21.876,1.906-2.684,3.706-.161s-1.086,1.049-6.586,4.218l.916-1.291-1.382,1.04ZM32.323,30.748l.065-1.092L.611,35.4.435,37.414ZM31.1,33.927,31,32.879,0,40.6.219,42.42ZM22.736,50.266l-.17,1.031-9.879,6.091-1.374-.795ZM62.7,43.545l.758.832L76.115,14.11l-1.585-.857Zm2.45,3.351-.865-.771L78.066,16.8,79.53,18.27Zm.72,1.346.733,1.13L82.649,22.551l-1.533-1.836Zm2.241,3.285-.777-.594L83.31,25.854l1.1,2.2Zm.215,1.379.7,1.207,16.99-20.919-.99-2.691Zm1.884,3.288-.759-.832L87.028,35.216l.551,2.927Zm.139,1.473.729,1.272L88,43.545,87.721,40.6Zm1.371,3.865-.668-1.166L87.93,46.124l-.249,3.248Zm-.3,1.442.835,1.213,14.426-9.441.689-3.219ZM72.682,66.9l-.791-1.379c5.257-3.593,14.125-8.984,14.125-8.984a14.1,14.1,0,0,1-.99,3.674ZM71.46,68.452l.851,1.485,10.337-4.546a31.3,31.3,0,0,0,1.445-3.372C84.081,61.8,75.666,66.216,71.46,68.452Zm-.293,4.4-.11-1.913c3.587-1.6,10.725-4.654,10.581-4.121a21.777,21.777,0,0,1-2.428,3.374Zm-.98.989L69.48,75.8l6.17-1.015a25.71,25.71,0,0,0,2.973-3.406C78.731,70.978,73.044,72.853,70.187,73.842Zm-1.159,2.643-.919,2.08,3.389.022,3.532-3.164ZM61.843,41.268l-.909-.6L70.626,9.828l1.651,1.165ZM56.477,34.79l.954.439L63.306,6.654H61.721Zm2.317,3.3.954.437,8.506-30.8-1.68-.725Zm-3.861-7.631-.877-.059,2.566-23.75h1.807Zm-3.938-3.714,1.105.21L53.569,7.593,52.1,7.732Zm-2.08-4.316H47.539v-12l1.375-.792ZM44.523,13.5v2.936l-1.342-1.59Z" transform="translate(84 276)" fill="#fff" fill-rule="evenodd"/></g></svg>