<svg width="32" height="32" viewBox="0 0 32 32" fill="none" xmlns="http://www.w3.org/2000/svg">
<g clip-path="url(#clip0_2151_5878)">
<rect width="32" height="32" fill="white"/>
<g clip-path="url(#clip1_2151_5878)">
<g clip-path="url(#clip2_2151_5878)">
<path d="M32 0H0V32H32V0Z" fill="#D9DEE8"/>
<path d="M10.065 19.71C9.41164 19.71 8.85502 19.6067 8.39502 19.4C7.93502 19.1934 7.57839 18.9 7.32502 18.52C7.07164 18.14 6.92839 17.69 6.89502 17.17L8.84502 17.08C8.87839 17.3134 8.94502 17.5117 9.04502 17.675C9.14502 17.8384 9.28002 17.9617 9.45002 18.045C9.62002 18.1284 9.83164 18.17 10.085 18.17C10.285 18.17 10.455 18.1484 10.595 18.105C10.735 18.0617 10.8416 17.9934 10.915 17.9C10.9884 17.8067 11.025 17.69 11.025 17.55C11.025 17.4234 10.9934 17.3117 10.93 17.215C10.8666 17.1184 10.7434 17.0317 10.56 16.955C10.3766 16.8784 10.105 16.8034 9.74502 16.73C9.09839 16.5967 8.57502 16.4417 8.17502 16.265C7.77502 16.0884 7.48339 15.86 7.30002 15.58C7.11664 15.3 7.02502 14.9434 7.02502 14.51C7.02502 14.07 7.13839 13.6834 7.36502 13.35C7.59164 13.0167 7.91839 12.7567 8.34502 12.57C8.77164 12.3834 9.28502 12.29 9.88502 12.29C10.5184 12.29 11.0484 12.3967 11.475 12.61C11.9016 12.8234 12.2334 13.1167 12.47 13.49C12.7066 13.8634 12.8484 14.2967 12.895 14.79L10.965 14.87C10.9516 14.65 10.8984 14.4634 10.805 14.31C10.7116 14.1567 10.5866 14.0384 10.43 13.955C10.2734 13.8717 10.085 13.83 9.86502 13.83C9.58502 13.83 9.36839 13.8867 9.21502 14C9.06164 14.1134 8.98502 14.2634 8.98502 14.45C8.98502 14.5967 9.02339 14.72 9.10002 14.82C9.17664 14.92 9.30339 15.0034 9.48002 15.07C9.65664 15.1367 9.89839 15.1967 10.205 15.25C10.905 15.37 11.4584 15.5334 11.865 15.74C12.2716 15.9467 12.56 16.1934 12.73 16.48C12.9 16.7667 12.985 17.0967 12.985 17.47C12.985 17.93 12.87 18.3284 12.64 18.665C12.41 19.0017 12.0766 19.26 11.64 19.44C11.2034 19.62 10.6784 19.71 10.065 19.71Z" fill="#42454D"/>
<path d="M13.6851 19.5502V12.4502H15.6451V19.1402L14.5251 17.9802H18.7351V19.5502H13.6851Z" fill="#42454D"/>
<path d="M20.305 19.5502L17.745 12.4502H19.745L21.425 17.3302L23.105 12.4502H25.105L22.525 19.5502H20.305Z" fill="#42454D"/>
</g>
</g>
<path d="M21.2257 32H10.7745L16.0001 26.7744L21.2257 32ZM5.22571 16L0.00012207 21.2256V10.7744L5.22571 16ZM32.0001 21.2256L26.7745 16L32.0001 10.7744V21.2256ZM16.0001 5.22559L10.7745 0H21.2257L16.0001 5.22559Z" fill="black" fill-opacity="0.5"/>
</g>
<defs>
<clipPath id="clip0_2151_5878">
<rect width="32" height="32" fill="white"/>
</clipPath>
<clipPath id="clip1_2151_5878">
<rect width="32" height="32" fill="white"/>
</clipPath>
<clipPath id="clip2_2151_5878">
<rect width="32" height="32" fill="white"/>
</clipPath>
</defs>
</svg>
