<svg width="64" height="64" viewBox="0 0 64 64" fill="none" xmlns="http://www.w3.org/2000/svg">
<g clip-path="url(#clip0_338_26374)">
<rect width="64" height="64" fill="#EF0027"/>
<path d="M32.0013 50.5817L36.4782 25.4302C40.7452 25.4302 42.0912 25.8976 42.2856 27.8055C42.2856 27.8055 45.1483 26.7393 46.5919 24.5739C40.958 21.9659 35.2972 21.8483 35.2972 21.8483L31.994 25.8674L32.0014 25.8669L28.6981 21.8477C28.6981 21.8477 23.0372 21.9654 17.4041 24.5733C18.8465 26.7388 21.7102 27.805 21.7102 27.805C21.9057 25.897 23.25 25.4296 27.4885 25.4265L32.0013 50.5817Z" fill="white"/>
<path d="M32 20.6863C36.5542 20.6515 41.7669 21.3901 47.1034 23.7135C47.8166 22.4311 48 21.8643 48 21.8643C42.1664 19.5588 36.7035 18.7698 31.9994 18.75C27.2953 18.7698 21.8327 19.5589 16 21.8643C16 21.8643 16.2602 22.5625 16.896 23.7135C22.2313 21.3901 27.4451 20.6515 31.9995 20.6863H32Z" fill="white"/>
<path d="M42.4523 64H21.548L32.0001 53.5479L42.4523 64ZM10.4523 32L0.00012207 42.4521V21.5479L10.4523 32ZM64.0001 42.4521L53.548 32L64.0001 21.5479V42.4521ZM32.0001 10.4521L21.548 0H42.4523L32.0001 10.4521Z" fill="black" fill-opacity="0.5"/>
</g>
<defs>
<clipPath id="clip0_338_26374">
<rect width="64" height="64" fill="white"/>
</clipPath>
</defs>
</svg>
